# Blender v3.1.2 OBJ File: ''
# www.blender.org
mtllib surface_single.mtl
o surface_single_surface_single_mesh
v 0.500000 -0.500000 0.250000
v -0.500000 -0.500000 0.250000
v -0.500000 0.500000 0.250000
v 0.500000 0.500000 0.250000
v -0.500000 0.500000 0.500000
v 0.500000 0.500000 0.500000
v 0.500000 -0.500000 0.500000
v -0.500000 -0.500000 0.500000
vt 0.000000 0.000000
vt 1.000000 0.000000
vt 1.000000 1.000000
vt 0.000000 1.000000
vt 0.000000 0.750000
vt 1.000000 0.750000
vt 1.000000 1.000000
vt 0.000000 1.000000
vt -0.000000 1.000000
vt 0.000000 0.000000
vt 0.250000 0.000000
vt 0.250000 1.000000
vt 1.000000 1.000000
vt 1.000000 0.000000
vt 0.750000 0.000000
vt 0.750000 1.000000
vt 1.000000 0.250000
vt -0.000000 0.250000
vt 1.000000 0.000000
vt 0.000000 0.000000
vt 1.000000 0.000000
vt 1.000000 1.000000
vt 0.000000 1.000000
vn 0.0000 0.0000 -1.0000
vn 0.0000 1.0000 0.0000
vn 1.0000 0.0000 0.0000
vn -1.0000 -0.0000 0.0000
vn 0.0000 -1.0000 0.0000
vn 0.0000 -0.0000 1.0000
usemtl floor
s off
f 1/1/1 2/2/1 3/3/1 4/4/1
usemtl sides
f 5/5/2 6/6/2 4/7/2 3/8/2
f 6/9/3 7/10/3 1/11/3 4/12/3
f 8/13/4 5/14/4 3/15/4 2/16/4
f 2/17/5 1/18/5 7/10/5 8/19/5
usemtl back
f 8/20/6 7/21/6 6/22/6 5/23/6
