# Blender v3.1.2 OBJ File: 'tile.blend'
# www.blender.org
mtllib surfacehole0_single.mtl
o surfacehole0_single_surfacehole0_single_mesh
v -0.500000 0.500000 0.500000
v -0.500000 0.500000 0.250000
v -0.500000 -0.500000 0.500000
v -0.500000 -0.500000 0.250000
v 0.500000 0.500000 0.500000
v 0.500000 0.500000 0.250000
v 0.500000 -0.500000 0.500000
v 0.500000 -0.500000 0.250000
v 0.200000 0.050000 0.250000
v 0.100000 0.150000 0.250000
v -0.200000 0.150000 0.250000
v -0.200000 -0.050000 0.250000
v -0.100000 -0.150000 0.250000
v 0.100000 -0.250000 0.250000
v 0.200000 -0.050000 0.250000
v -0.100000 0.250000 0.250000
v 0.200000 0.050000 0.500000
v 0.100000 0.150000 0.500000
v -0.200000 0.150000 0.500000
v -0.200000 -0.050000 0.500000
v -0.100000 -0.150000 0.500000
v 0.100000 -0.250000 0.500000
v 0.200000 -0.050000 0.500000
v -0.100000 0.250000 0.500000
vt 1.000000 0.000000
vt 1.000000 1.000000
vt 0.700000 0.650000
vt 0.700000 0.450000
vt -0.000000 0.000000
vt 0.300000 0.450000
vt 0.300000 0.550000
vt -0.000000 1.000000
vt 0.600000 0.750000
vt 0.400000 0.650000
vt 0.600000 0.350000
vt 0.400000 0.250000
vt 0.000000 0.750000
vt 1.000000 0.750000
vt 1.000000 1.000000
vt 0.000000 1.000000
vt -0.000000 1.000000
vt 0.000000 0.000000
vt 0.250000 0.000000
vt 0.250000 1.000000
vt 1.000000 1.000000
vt 1.000000 0.000000
vt 0.750000 0.000000
vt 0.750000 1.000000
vt 1.000000 0.250000
vt 0.000000 0.250000
vt 0.000000 -0.000000
vt 1.000000 0.000000
vt 1.000000 0.000001
vt 0.999999 0.999999
vt 0.700000 0.550001
vt 0.700000 0.450000
vt 0.000000 0.000000
vt 0.300000 0.450000
vt 0.300000 0.650000
vt 0.000000 1.000000
vt 0.600000 0.250000
vt 0.400000 0.350000
vt 0.600000 0.650000
vt 0.400000 0.750000
vt 0.320312 0.206727
vt 0.320313 0.000000
vt 0.690538 0.000000
vt 0.690538 0.206727
vt 0.320312 0.533590
vt 0.690538 0.533590
vt 0.320312 1.000000
vt 0.320312 0.855871
vt 0.690538 0.855871
vt 0.690538 1.000000
vt 0.315538 0.952452
vt 0.315538 0.625589
vt 0.685763 0.625589
vt 0.685763 0.952452
vt 0.315538 0.418862
vt 0.315538 0.209431
vt 0.685763 0.209431
vt 0.685763 0.418862
vt 0.315538 -0.000000
vt 0.685763 0.000000
vt 0.320313 0.533590
vt 0.690538 0.533590
vn -0.0000 0.0000 -1.0000
vn 0.0000 1.0000 0.0000
vn 1.0000 0.0000 0.0000
vn -1.0000 0.0000 0.0000
vn 0.0000 -1.0000 0.0000
vn -0.0000 -0.0000 1.0000
vn -0.7071 -0.7071 0.0000
vn -0.4472 -0.8944 0.0000
vn 0.4472 0.8944 0.0000
vn 0.7071 -0.7071 0.0000
vn -0.8944 0.4472 0.0000
vn 0.7071 0.7071 0.0000
usemtl front
s off
f 4/1/1 2/2/1 11/3/1 12/4/1
f 8/5/1 15/6/1 9/7/1 6/8/1
f 11/3/1 2/2/1 16/9/1
f 9/7/1 10/10/1 6/8/1
f 16/9/1 6/8/1 10/10/1
f 6/8/1 16/9/1 2/2/1
f 12/4/1 13/11/1 4/1/1
f 14/12/1 4/1/1 13/11/1
f 15/6/1 8/5/1 14/12/1
f 4/1/1 14/12/1 8/5/1
usemtl sides
f 1/13/2 5/14/2 6/15/2 2/16/2
f 5/17/3 7/18/3 8/19/3 6/20/3
f 3/21/4 1/22/4 2/23/4 4/24/4
f 7/25/5 3/26/5 4/27/5 8/28/5
usemtl back
f 7/29/6 5/30/6 17/31/6 23/32/6
f 3/33/6 20/34/6 19/35/6 1/36/6
f 23/32/6 22/37/6 7/29/6
f 20/34/6 3/33/6 21/38/6
f 22/37/6 21/38/6 3/33/6
f 7/29/6 22/37/6 3/33/6
f 17/31/6 5/30/6 18/39/6
f 19/35/6 24/40/6 1/36/6
f 24/40/6 18/39/6 5/30/6
f 1/36/6 24/40/6 5/30/6
usemtl 4
f 10/41/7 9/42/7 17/43/7 18/44/7
f 16/45/8 10/41/8 18/44/8 24/46/8
f 9/47/4 15/48/4 23/49/4 17/50/4
f 14/51/9 13/52/9 21/53/9 22/54/9
f 12/55/3 11/56/3 19/57/3 20/58/3
f 11/56/10 16/59/10 24/60/10 19/57/10
f 15/48/11 14/61/11 22/62/11 23/49/11
f 13/52/12 12/55/12 20/58/12 21/53/12
