# Blender v3.1.2 OBJ File: 'tile.blend'
# www.blender.org
mtllib surfacewindow_single.mtl
o surfacewindow_single_surfacewindow_single_mesh
v 0.500000 -0.500000 0.250000
v -0.500000 -0.500000 0.250000
v -0.500000 0.500000 0.250000
v 0.500000 0.500000 0.250000
v -0.500000 0.500000 0.500000
v 0.500000 0.500000 0.500000
v 0.500000 -0.500000 0.500000
v -0.500000 -0.500000 0.500000
v 0.200000 -0.400000 0.250000
v -0.200000 -0.400000 0.250000
v -0.200000 0.400000 0.250000
v 0.200000 0.400000 0.250000
v -0.400000 0.200000 0.250000
v -0.400000 -0.200000 0.250000
v 0.400000 0.200000 0.250000
v 0.400000 -0.200000 0.250000
v 0.200000 -0.400000 0.300000
v -0.200000 -0.400000 0.300000
v -0.200000 0.400000 0.300000
v 0.200000 0.400000 0.300000
v -0.400000 0.205790 0.300000
v -0.400000 -0.194210 0.300000
v 0.400000 0.200000 0.300000
v 0.400000 -0.200000 0.300000
v 0.200000 -0.400000 0.450000
v -0.200000 -0.400000 0.450000
v -0.200000 0.400000 0.450000
v 0.200000 0.400000 0.450000
v -0.400000 0.200000 0.450000
v -0.400000 -0.194210 0.450000
v 0.400000 0.200000 0.450000
v 0.400000 -0.200000 0.450000
v 0.200000 -0.400000 0.500000
v -0.200000 -0.400000 0.500000
v -0.200000 0.400000 0.500000
v 0.200000 0.400000 0.500000
v -0.400000 0.200000 0.500000
v -0.400000 -0.200000 0.500000
v 0.400000 0.200000 0.500000
v 0.400000 -0.200000 0.500000
vt 0.000000 1.000000
vt 0.700000 0.900000
vt 1.000000 1.000000
vt 0.700000 0.100000
vt 1.000000 0.000000
vt 0.900000 0.300000
vt 0.000000 0.000000
vt 0.300000 0.100000
vt 0.100000 0.300000
vt 0.300000 0.900000
vt 0.100000 0.700000
vt 0.900000 0.700000
vt 0.524644 0.697295
vt 0.468735 0.999954
vt 0.531229 0.999954
vt 0.698000 0.000030
vt 0.302000 0.049530
vt 0.302000 0.000030
vt 0.524644 0.697295
vt 0.468735 0.999954
vt 0.475320 0.697295
vt 0.475320 0.302699
vt 0.524644 0.302699
vt 0.305902 0.999071
vt 0.705902 0.949071
vt 0.705902 0.999071
vt 0.524644 0.302699
vt 0.475320 0.697295
vt 0.468735 0.000040
vt 0.531230 0.000040
vt 0.468735 0.000040
vt 0.475320 0.302699
vt 0.698000 0.049530
vt 0.531229 0.999954
vt 0.305902 0.949071
vt 0.531230 0.000040
vt 1.000000 0.750000
vt 0.000000 1.000000
vt 0.000000 0.750000
vt 1.000000 0.000000
vt 0.000000 0.250000
vt 0.000000 -0.000000
vt 1.000000 0.406250
vt 0.750000 0.593750
vt 1.000000 0.593750
vt 1.000000 0.406250
vt 0.750000 0.593750
vt 1.000000 0.593750
vt 0.250000 0.406250
vt 0.750000 0.406250
vt 0.750000 0.406250
vt 0.250000 0.593750
vt 0.250000 0.406250
vt 0.250000 0.406250
vt 0.750000 0.406250
vt 0.000000 0.406250
vt 0.250000 0.593750
vt 0.750000 0.406250
vt 0.250000 0.593750
vt 0.250000 0.406250
vt 1.000000 0.406250
vt 0.750000 0.593750
vt 0.750000 1.000000
vt 1.000000 1.000000
vt 0.250000 0.000000
vt 0.250000 1.000000
vt 1.000000 1.000000
vt 1.000000 0.250000
vt 0.250000 0.593750
vt 0.000000 0.593750
vt 0.750000 0.593750
vt 1.000000 0.593750
vt 0.750000 0.000000
vt 0.250000 0.656250
vt 1.000000 0.656250
vt 0.750000 0.656250
vt 1.000000 0.656250
vt 1.000000 0.656250
vt 0.750000 0.656250
vt 0.250000 0.656250
vt 0.750000 0.656250
vt 0.250000 0.656250
vt 0.954520 -0.041675
vt 0.265899 0.118953
vt -0.041675 0.045481
vt 0.084091 0.335624
vt 0.915908 0.664377
vt 1.041675 0.954520
vt 0.734101 0.881047
vt 0.335623 0.915909
vt 0.045481 1.041675
vt 0.118953 0.734101
vt 0.881047 0.265899
vt 0.750000 0.656250
vt 0.250000 0.656250
vt 0.000000 0.656250
vt 0.664377 0.084091
vt 0.250000 0.000000
vt 1.000000 0.257238
vt 0.000000 0.250000
vt 0.000000 0.750000
vt 1.000000 0.757238
vt 0.250000 1.000000
vt 0.750000 1.000000
vt 0.750000 0.000000
vt 1.000000 0.257238
vt 0.750000 0.000000
vt 0.250000 0.000000
vt 0.000000 0.250000
vt 1.000000 0.750000
vt 0.000000 0.750000
vt 0.750000 1.000000
vt 0.250000 1.000000
vn 0.3634 -0.6201 -0.6953
vn -0.7068 -0.3355 -0.6227
vn -0.3634 -0.6201 -0.6953
vn -0.1594 0.4736 -0.8662
vn -0.6878 0.2086 -0.6953
vn -0.3300 0.1703 -0.9285
vn 0.6880 0.2079 -0.6953
vn -0.2740 0.7329 -0.6227
vn 0.0000 0.0000 -1.0000
vn -0.3631 0.6202 -0.6953
vn 0.7068 0.3355 -0.6227
vn 0.3638 0.6198 -0.6953
vn -0.2741 -0.7328 -0.6227
vn 0.6879 -0.2084 -0.6953
vn -0.6879 -0.2084 -0.6953
vn 0.2740 -0.7329 -0.6227
vn 0.7032 0.1486 -0.6953
vn 0.3396 0.1502 -0.9285
vn -0.7032 0.1486 -0.6953
vn -0.7071 -0.7071 0.0000
vn -0.1607 -0.7200 0.6751
vn -0.9177 0.0371 0.3955
vn 0.4564 0.8662 -0.2035
vn 0.6751 0.6227 -0.3955
vn -0.3955 0.6227 -0.6751
vn 0.6943 -0.7150 0.0828
vn 0.1096 -0.6808 0.7243
vn 1.0000 0.0000 0.0000
vn 0.9285 0.0154 0.3711
vn 0.9285 -0.3703 0.0285
vn -0.3955 -0.6227 -0.6751
vn -0.6751 -0.6227 -0.3955
vn 0.3955 -0.6227 -0.6751
vn -1.0000 0.0000 0.0000
vn 0.6566 0.6565 -0.3714
vn 0.2898 0.9352 0.2035
vn 0.7564 0.4686 0.4564
vn -0.7071 0.7071 0.0000
vn -0.1606 0.7201 0.6751
vn 0.7068 -0.3356 -0.6227
vn -0.7068 -0.3356 -0.6227
vn -0.3632 0.6202 -0.6953
vn -0.4996 -0.0068 -0.8662
vn 0.7068 0.3356 -0.6227
vn 0.7032 0.1487 -0.6953
vn 0.7031 -0.1492 -0.6953
vn -0.7032 -0.1484 -0.6953
vn -0.7032 0.1487 -0.6953
vn 0.4564 0.8662 -0.2034
vn -0.2035 0.8662 -0.4564
vn 0.7071 -0.7071 0.0000
vn 0.9177 0.0370 0.3955
vn 0.1606 -0.7200 0.6751
vn 0.9285 0.0002 0.3714
vn 0.6751 -0.6227 -0.3955
vn 0.6500 0.6162 -0.4447
vn 0.4041 0.9098 -0.0952
vn 0.3128 0.9404 0.1331
vn -0.9177 -0.0370 0.3955
vn -0.1607 0.7200 0.6751
vn 0.5774 0.5774 0.5773
vn 0.1176 0.6953 -0.7090
vn -0.5774 0.5774 0.5773
vn -0.5774 -0.5774 0.5773
vn -0.1172 -0.6953 -0.7091
vn 0.5774 -0.5774 0.5773
vn -0.9177 0.0370 0.3955
vn 0.9285 -0.0000 0.3714
vn 0.9285 -0.3714 0.0000
vn 0.6654 0.6475 -0.3714
vn 0.3038 0.9303 0.2057
vn 0.7630 0.4578 0.4564
vn 0.9257 0.0159 0.3780
vn 0.6964 -0.7171 -0.0277
vn -0.6953 0.7090 0.1176
vn -0.5774 -0.5773 0.5774
vn -0.5774 0.5773 0.5774
vn 0.5774 -0.5773 0.5774
vn 0.6953 0.7090 0.1176
vn 0.5774 0.5773 0.5774
vn -0.1176 0.6953 -0.7090
vn 0.1179 -0.6953 -0.7090
vn -0.1606 0.7200 0.6751
vn 0.6650 0.6480 -0.3714
vn 0.4070 0.9134 -0.0001
vn 0.3032 0.9309 0.2037
vn 0.9177 0.0370 0.3956
vn -0.6953 -0.7090 0.1179
vn 0.6953 -0.7091 0.1172
vn 0.1606 -0.7201 0.6751
vn -0.9177 -0.0370 0.3956
vn 0.9285 -0.0150 0.3711
vn 0.9285 -0.3703 -0.0285
vn 0.6657 0.6473 -0.3714
vn 0.3034 0.9307 0.2045
vn 0.8059 -0.1309 0.5774
vn 0.4761 0.1516 0.8662
vn -0.8059 -0.1309 0.5774
vn -0.3544 -0.3523 0.8662
vn 0.2191 0.2999 0.9285
vn -0.5773 -0.5774 0.5774
vn 0.0000 0.0000 1.0000
vn 0.5402 0.6122 0.5774
vn 0.2807 0.7303 0.6227
vn -0.0827 0.7780 0.6227
vn -0.5773 0.5774 0.5774
vn -0.8165 -0.0003 0.5774
vn -0.7458 -0.2366 0.6227
vn 0.7949 0.1864 0.5774
vn 0.1307 0.8060 0.5774
vn -0.1307 0.8060 0.5774
vn 0.2747 -0.2499 0.9285
vn 0.1607 -0.7200 0.6751
vn 0.6678 0.6837 -0.2942
vn 0.3910 0.9154 0.0957
vn 0.2760 0.9214 0.2736
vn -0.8059 0.1308 0.5774
vn 0.5645 -0.5418 0.6227
vn -0.5644 -0.5419 0.6227
vn 0.1307 -0.8060 0.5774
vn -0.1307 -0.8060 0.5774
vn 0.5773 -0.5774 0.5774
vn 0.0827 -0.7780 0.6227
vn -0.9544 -0.0737 -0.2894
vn 0.7747 -0.2579 0.5774
vn -0.5645 0.5418 0.6227
vn 0.3599 0.3467 0.8662
vn 0.4892 0.8662 -0.1017
vn -0.2773 0.8662 -0.4157
vn -0.0946 0.6227 -0.7767
vn 0.2460 0.2782 0.9285
vn -0.4818 0.1325 0.8662
vn 0.1981 0.7569 0.6227
vn 0.0169 0.3710 0.9285
vn 0.7731 -0.1207 0.6227
vn -0.1286 0.3484 0.9285
vn -0.7733 0.1192 0.6227
usemtl front
s off
f 4/1/1 11/2/2 3/3/3
f 10/4/4 2/5/5 14/6/6
f 1/7/7 9/8/8 16/9/9
f 2/5/10 9/8/11 1/7/12
f 12/10/13 4/1/14 15/11/9
f 13/12/9 3/3/15 11/2/16
f 4/1/17 16/9/9 15/11/9
f 14/6/18 3/3/19 13/12/9
f 15/13/20 20/14/21 12/15/22
f 10/16/23 17/17/24 9/18/25
f 13/19/26 19/20/27 21/21/26
f 13/19/28 22/22/29 14/23/30
f 12/24/31 19/25/32 11/26/33
f 16/27/34 23/28/34 15/13/34
f 14/23/35 18/29/36 10/30/37
f 16/27/38 17/31/39 24/32/38
f 4/1/1 12/10/40 11/2/41
f 2/5/42 10/4/43 9/8/44
f 4/1/45 1/7/46 16/9/9
f 14/6/18 2/5/47 3/3/48
f 15/13/20 23/28/20 20/14/21
f 10/16/49 18/33/50 17/17/24
f 13/19/51 11/34/52 19/20/53
f 13/19/28 21/21/28 22/22/54
f 12/24/31 20/35/55 19/25/32
f 16/27/34 24/32/34 23/28/34
f 14/23/56 22/22/57 18/29/58
f 16/27/38 9/36/59 17/31/60
usemtl sides
f 6/37/61 3/38/62 5/39/63
f 8/40/64 1/41/65 7/42/66
f 20/43/67 31/44/20 28/45/21
f 24/46/38 25/47/39 32/48/38
f 18/49/49 25/47/24 17/50/25
f 21/51/28 30/52/68 22/53/69
f 24/54/34 31/44/34 23/55/34
f 22/56/70 26/57/71 18/49/72
f 20/58/31 27/59/32 19/60/33
f 19/61/73 29/62/74 21/51/74
f 3/63/75 8/40/76 5/64/77
f 7/65/78 4/1/79 6/66/80
f 6/37/61 4/67/81 3/38/62
f 8/40/64 2/68/82 1/41/65
f 20/43/67 23/55/20 31/44/20
f 24/46/38 17/50/59 25/47/83
f 18/49/23 26/57/50 25/47/24
f 21/51/28 29/62/28 30/52/68
f 24/54/34 32/69/34 31/44/34
f 22/56/84 30/70/85 26/57/86
f 20/58/31 28/71/55 27/59/32
f 19/61/87 27/72/53 29/62/51
f 3/63/75 2/73/88 8/40/76
f 7/65/78 1/7/89 4/1/79
usemtl back
f 28/71/31 35/74/32 27/59/33
f 29/62/51 35/75/90 37/76/51
f 31/44/20 36/77/21 28/45/22
f 25/47/91 40/78/38 32/48/38
f 26/57/23 33/79/24 25/47/25
f 29/62/28 38/80/92 30/52/93
f 32/69/34 39/81/34 31/44/34
f 30/70/94 34/82/95 26/57/72
f 7/83/96 34/84/97 8/85/98
f 34/84/99 38/86/100 8/85/101
f 39/87/102 6/88/103 36/89/104
f 35/90/105 5/91/106 37/92/102
f 5/91/107 36/89/108 6/88/109
f 40/93/102 6/88/110 39/87/102
f 5/91/111 38/86/112 37/92/102
f 28/71/31 36/94/55 35/74/32
f 29/62/51 27/72/52 35/75/113
f 31/44/20 39/81/20 36/77/21
f 29/62/28 37/76/28 38/80/68
f 32/69/34 40/95/34 39/81/34
f 30/70/114 38/96/115 34/82/116
f 5/91/117 35/90/118 36/89/119
f 40/93/102 7/83/120 6/88/110
f 5/91/111 8/85/121 38/86/112
f 7/83/122 40/93/102 33/97/123
f 25/47/124 33/79/83 40/78/38
f 7/83/125 33/97/126 34/84/127
f 26/57/128 34/82/129 33/79/130
usemtl 5
f 17/98/9 22/99/9 24/100/9
f 23/101/9 24/100/9 21/102/9
f 20/103/9 23/101/9 19/104/9
f 22/99/9 17/98/9 18/105/9
f 21/102/9 24/100/9 22/99/9
f 19/104/9 23/101/9 21/102/9
f 30/106/131 26/107/132 25/108/133
f 32/109/102 30/106/134 25/108/135
f 29/110/102 30/106/136 32/109/102
f 29/110/102 32/109/102 31/111/102
f 29/110/102 31/111/102 27/112/137
f 28/113/102 27/112/102 31/111/102
