# Blender v3.1.2 OBJ File: ''
# www.blender.org
mtllib water.mtl
o water
v 1.000000 0.000000 -1.000000
v -1.000000 0.000000 -1.000000
v -1.000000 -0.000000 1.000000
v 1.000000 -0.000000 1.000000
v -0.777778 -0.000000 1.000000
v -0.555556 -0.000000 1.000000
v -0.333333 -0.000000 1.000000
v -0.111111 -0.000000 1.000000
v 0.111111 -0.000000 1.000000
v 0.333333 -0.000000 1.000000
v 0.555556 -0.000000 1.000000
v 0.777778 -0.000000 1.000000
v 0.777778 0.000000 -1.000000
v 0.555556 0.000000 -1.000000
v 0.333333 0.000000 -1.000000
v 0.111111 0.000000 -1.000000
v -0.111111 0.000000 -1.000000
v -0.333333 0.000000 -1.000000
v -0.555556 0.000000 -1.000000
v -0.777778 0.000000 -1.000000
v -1.000000 0.000000 -0.777778
v -1.000000 0.000000 -0.555555
v -1.000000 0.000000 -0.333333
v -1.000000 0.000000 -0.111111
v -1.000000 -0.000000 0.111111
v -1.000000 -0.000000 0.333333
v -1.000000 -0.000000 0.555556
v -1.000000 -0.000000 0.777778
v 1.000000 0.000000 -0.777778
v 1.000000 0.000000 -0.555555
v 1.000000 0.000000 -0.333333
v 1.000000 0.000000 -0.111111
v 1.000000 -0.000000 0.111111
v 1.000000 -0.000000 0.333333
v 1.000000 -0.000000 0.555556
v 1.000000 -0.000000 0.777778
v 0.777778 0.000000 -0.777778
v 0.777778 0.000000 -0.555555
v 0.777778 0.000000 -0.333333
v 0.777778 0.000000 -0.111111
v 0.777778 -0.000000 0.111111
v 0.777778 -0.000000 0.333333
v 0.777778 -0.000000 0.555556
v 0.777778 -0.000000 0.777778
v 0.555556 0.000000 -0.777778
v 0.555556 0.000000 -0.555555
v 0.555556 0.000000 -0.333333
v 0.555556 0.000000 -0.111111
v 0.555556 -0.000000 0.111111
v 0.555556 -0.000000 0.333333
v 0.555556 -0.000000 0.555556
v 0.555556 -0.000000 0.777778
v 0.333333 0.000000 -0.777778
v 0.333333 0.000000 -0.555555
v 0.333333 0.000000 -0.333333
v 0.333333 0.000000 -0.111111
v 0.333333 -0.000000 0.111111
v 0.333333 -0.000000 0.333333
v 0.333333 -0.000000 0.555556
v 0.333333 -0.000000 0.777778
v 0.111111 0.000000 -0.777778
v 0.111111 0.000000 -0.555555
v 0.111111 0.000000 -0.333333
v 0.111111 0.000000 -0.111111
v 0.111111 -0.000000 0.111111
v 0.111111 -0.000000 0.333333
v 0.111111 -0.000000 0.555556
v 0.111111 -0.000000 0.777778
v -0.111111 0.000000 -0.777778
v -0.111111 0.000000 -0.555555
v -0.111111 0.000000 -0.333333
v -0.111111 0.000000 -0.111111
v -0.111111 -0.000000 0.111111
v -0.111111 -0.000000 0.333333
v -0.111111 -0.000000 0.555556
v -0.111111 -0.000000 0.777778
v -0.333333 0.000000 -0.777778
v -0.333333 0.000000 -0.555555
v -0.333333 0.000000 -0.333333
v -0.333333 0.000000 -0.111111
v -0.333333 -0.000000 0.111111
v -0.333333 -0.000000 0.333333
v -0.333333 -0.000000 0.555556
v -0.333333 -0.000000 0.777778
v -0.555556 0.000000 -0.777778
v -0.555556 0.000000 -0.555555
v -0.555556 0.000000 -0.333333
v -0.555556 0.000000 -0.111111
v -0.555556 -0.000000 0.111111
v -0.555556 -0.000000 0.333333
v -0.555556 -0.000000 0.555556
v -0.555556 -0.000000 0.777778
v -0.777778 0.000000 -0.777778
v -0.777778 0.000000 -0.555555
v -0.777778 0.000000 -0.333333
v -0.777778 0.000000 -0.111111
v -0.777778 -0.000000 0.111111
v -0.777778 -0.000000 0.333333
v -0.777778 -0.000000 0.555556
v -0.777778 -0.000000 0.777778
vt 0.999900 0.888811
vt 0.888811 0.999900
vt 0.888811 0.888811
vt 0.111189 0.888811
vt 0.000100 0.999900
vt 0.000100 0.888811
vt 0.222278 0.888811
vt 0.111189 0.999900
vt 0.333367 0.888811
vt 0.222278 0.999900
vt 0.444456 0.888811
vt 0.333367 0.999900
vt 0.555544 0.888811
vt 0.444456 0.999900
vt 0.666633 0.888811
vt 0.555544 0.999900
vt 0.777722 0.888811
vt 0.666633 0.999900
vt 0.777722 0.999900
vt 0.111189 0.000100
vt 0.000100 0.111189
vt 0.000100 0.000100
vt 0.111189 0.111189
vt 0.000100 0.222278
vt 0.111189 0.222278
vt 0.000100 0.333367
vt 0.111189 0.333367
vt 0.000100 0.444456
vt 0.111189 0.444456
vt 0.000100 0.555544
vt 0.111189 0.555544
vt 0.000100 0.666633
vt 0.111189 0.666633
vt 0.000100 0.777722
vt 0.111189 0.777722
vt 0.222278 0.000100
vt 0.222278 0.111189
vt 0.222278 0.222278
vt 0.222278 0.333367
vt 0.222278 0.444456
vt 0.222278 0.555544
vt 0.222278 0.666633
vt 0.222278 0.777722
vt 0.333367 0.000100
vt 0.333367 0.111189
vt 0.333367 0.222278
vt 0.333367 0.333367
vt 0.333367 0.444456
vt 0.333367 0.555544
vt 0.333367 0.666633
vt 0.333367 0.777722
vt 0.444456 0.000100
vt 0.444456 0.111189
vt 0.444456 0.222278
vt 0.444456 0.333367
vt 0.444456 0.444456
vt 0.444456 0.555544
vt 0.444456 0.666633
vt 0.444456 0.777722
vt 0.555544 0.000100
vt 0.555544 0.111189
vt 0.555544 0.222278
vt 0.555544 0.333367
vt 0.555544 0.444456
vt 0.555544 0.555544
vt 0.555544 0.666633
vt 0.555544 0.777722
vt 0.666633 0.000100
vt 0.666633 0.111189
vt 0.666633 0.222278
vt 0.666633 0.333367
vt 0.666633 0.444456
vt 0.666633 0.555544
vt 0.666633 0.666633
vt 0.666633 0.777722
vt 0.777722 0.000100
vt 0.777722 0.111189
vt 0.777722 0.222278
vt 0.777722 0.333367
vt 0.777722 0.444456
vt 0.777722 0.555544
vt 0.777722 0.666633
vt 0.777722 0.777722
vt 0.888811 0.000100
vt 0.888811 0.111189
vt 0.888811 0.222278
vt 0.888811 0.333367
vt 0.888811 0.444456
vt 0.888811 0.555544
vt 0.888811 0.666633
vt 0.888811 0.777722
vt 0.999900 0.000100
vt 0.999900 0.111189
vt 0.999900 0.222278
vt 0.999900 0.333367
vt 0.999900 0.444456
vt 0.999900 0.555544
vt 0.999900 0.666633
vt 0.999900 0.777722
vt 0.999900 0.999900
vn 0.0000 1.0000 0.0000
usemtl water
s 1
f 28/1/1 5/2/1 100/3/1
f 44/4/1 4/5/1 36/6/1
f 52/7/1 12/8/1 44/4/1
f 60/9/1 11/10/1 52/7/1
f 68/11/1 10/12/1 60/9/1
f 76/13/1 9/14/1 68/11/1
f 84/15/1 8/16/1 76/13/1
f 92/17/1 7/18/1 84/15/1
f 100/3/1 6/19/1 92/17/1
f 13/20/1 29/21/1 1/22/1
f 37/23/1 30/24/1 29/21/1
f 38/25/1 31/26/1 30/24/1
f 39/27/1 32/28/1 31/26/1
f 40/29/1 33/30/1 32/28/1
f 41/31/1 34/32/1 33/30/1
f 42/33/1 35/34/1 34/32/1
f 43/35/1 36/6/1 35/34/1
f 14/36/1 37/23/1 13/20/1
f 45/37/1 38/25/1 37/23/1
f 46/38/1 39/27/1 38/25/1
f 47/39/1 40/29/1 39/27/1
f 48/40/1 41/31/1 40/29/1
f 49/41/1 42/33/1 41/31/1
f 50/42/1 43/35/1 42/33/1
f 51/43/1 44/4/1 43/35/1
f 15/44/1 45/37/1 14/36/1
f 53/45/1 46/38/1 45/37/1
f 54/46/1 47/39/1 46/38/1
f 55/47/1 48/40/1 47/39/1
f 56/48/1 49/41/1 48/40/1
f 57/49/1 50/42/1 49/41/1
f 58/50/1 51/43/1 50/42/1
f 59/51/1 52/7/1 51/43/1
f 16/52/1 53/45/1 15/44/1
f 61/53/1 54/46/1 53/45/1
f 62/54/1 55/47/1 54/46/1
f 63/55/1 56/48/1 55/47/1
f 64/56/1 57/49/1 56/48/1
f 65/57/1 58/50/1 57/49/1
f 66/58/1 59/51/1 58/50/1
f 67/59/1 60/9/1 59/51/1
f 17/60/1 61/53/1 16/52/1
f 69/61/1 62/54/1 61/53/1
f 70/62/1 63/55/1 62/54/1
f 71/63/1 64/56/1 63/55/1
f 72/64/1 65/57/1 64/56/1
f 73/65/1 66/58/1 65/57/1
f 74/66/1 67/59/1 66/58/1
f 75/67/1 68/11/1 67/59/1
f 18/68/1 69/61/1 17/60/1
f 77/69/1 70/62/1 69/61/1
f 78/70/1 71/63/1 70/62/1
f 79/71/1 72/64/1 71/63/1
f 80/72/1 73/65/1 72/64/1
f 81/73/1 74/66/1 73/65/1
f 82/74/1 75/67/1 74/66/1
f 83/75/1 76/13/1 75/67/1
f 19/76/1 77/69/1 18/68/1
f 85/77/1 78/70/1 77/69/1
f 86/78/1 79/71/1 78/70/1
f 87/79/1 80/72/1 79/71/1
f 88/80/1 81/73/1 80/72/1
f 89/81/1 82/74/1 81/73/1
f 90/82/1 83/75/1 82/74/1
f 91/83/1 84/15/1 83/75/1
f 20/84/1 85/77/1 19/76/1
f 93/85/1 86/78/1 85/77/1
f 94/86/1 87/79/1 86/78/1
f 95/87/1 88/80/1 87/79/1
f 96/88/1 89/81/1 88/80/1
f 97/89/1 90/82/1 89/81/1
f 98/90/1 91/83/1 90/82/1
f 99/91/1 92/17/1 91/83/1
f 2/92/1 93/85/1 20/84/1
f 21/93/1 94/86/1 93/85/1
f 22/94/1 95/87/1 94/86/1
f 23/95/1 96/88/1 95/87/1
f 24/96/1 97/89/1 96/88/1
f 25/97/1 98/90/1 97/89/1
f 26/98/1 99/91/1 98/90/1
f 27/99/1 100/3/1 99/91/1
f 28/1/1 3/100/1 5/2/1
f 44/4/1 12/8/1 4/5/1
f 52/7/1 11/10/1 12/8/1
f 60/9/1 10/12/1 11/10/1
f 68/11/1 9/14/1 10/12/1
f 76/13/1 8/16/1 9/14/1
f 84/15/1 7/18/1 8/16/1
f 92/17/1 6/19/1 7/18/1
f 100/3/1 5/2/1 6/19/1
f 13/20/1 37/23/1 29/21/1
f 37/23/1 38/25/1 30/24/1
f 38/25/1 39/27/1 31/26/1
f 39/27/1 40/29/1 32/28/1
f 40/29/1 41/31/1 33/30/1
f 41/31/1 42/33/1 34/32/1
f 42/33/1 43/35/1 35/34/1
f 43/35/1 44/4/1 36/6/1
f 14/36/1 45/37/1 37/23/1
f 45/37/1 46/38/1 38/25/1
f 46/38/1 47/39/1 39/27/1
f 47/39/1 48/40/1 40/29/1
f 48/40/1 49/41/1 41/31/1
f 49/41/1 50/42/1 42/33/1
f 50/42/1 51/43/1 43/35/1
f 51/43/1 52/7/1 44/4/1
f 15/44/1 53/45/1 45/37/1
f 53/45/1 54/46/1 46/38/1
f 54/46/1 55/47/1 47/39/1
f 55/47/1 56/48/1 48/40/1
f 56/48/1 57/49/1 49/41/1
f 57/49/1 58/50/1 50/42/1
f 58/50/1 59/51/1 51/43/1
f 59/51/1 60/9/1 52/7/1
f 16/52/1 61/53/1 53/45/1
f 61/53/1 62/54/1 54/46/1
f 62/54/1 63/55/1 55/47/1
f 63/55/1 64/56/1 56/48/1
f 64/56/1 65/57/1 57/49/1
f 65/57/1 66/58/1 58/50/1
f 66/58/1 67/59/1 59/51/1
f 67/59/1 68/11/1 60/9/1
f 17/60/1 69/61/1 61/53/1
f 69/61/1 70/62/1 62/54/1
f 70/62/1 71/63/1 63/55/1
f 71/63/1 72/64/1 64/56/1
f 72/64/1 73/65/1 65/57/1
f 73/65/1 74/66/1 66/58/1
f 74/66/1 75/67/1 67/59/1
f 75/67/1 76/13/1 68/11/1
f 18/68/1 77/69/1 69/61/1
f 77/69/1 78/70/1 70/62/1
f 78/70/1 79/71/1 71/63/1
f 79/71/1 80/72/1 72/64/1
f 80/72/1 81/73/1 73/65/1
f 81/73/1 82/74/1 74/66/1
f 82/74/1 83/75/1 75/67/1
f 83/75/1 84/15/1 76/13/1
f 19/76/1 85/77/1 77/69/1
f 85/77/1 86/78/1 78/70/1
f 86/78/1 87/79/1 79/71/1
f 87/79/1 88/80/1 80/72/1
f 88/80/1 89/81/1 81/73/1
f 89/81/1 90/82/1 82/74/1
f 90/82/1 91/83/1 83/75/1
f 91/83/1 92/17/1 84/15/1
f 20/84/1 93/85/1 85/77/1
f 93/85/1 94/86/1 86/78/1
f 94/86/1 95/87/1 87/79/1
f 95/87/1 96/88/1 88/80/1
f 96/88/1 97/89/1 89/81/1
f 97/89/1 98/90/1 90/82/1
f 98/90/1 99/91/1 91/83/1
f 99/91/1 100/3/1 92/17/1
f 2/92/1 21/93/1 93/85/1
f 21/93/1 22/94/1 94/86/1
f 22/94/1 23/95/1 95/87/1
f 23/95/1 24/96/1 96/88/1
f 24/96/1 25/97/1 97/89/1
f 25/97/1 26/98/1 98/90/1
f 26/98/1 27/99/1 99/91/1
f 27/99/1 28/1/1 100/3/1
