# Blender v3.1.2 OBJ File: ''
# www.blender.org
mtllib surfacewindow_single.mtl
o surfacewindow_single_surfacewindow_single_mesh
v 0.500000 0.500000 0.250000
v -0.200000 0.400000 0.250000
v -0.500000 0.500000 0.250000
v -0.200000 -0.400000 0.250000
v -0.500000 -0.500000 0.250000
v -0.400000 -0.200000 0.250000
v 0.500000 -0.500000 0.250000
v 0.200000 -0.400000 0.250000
v 0.400000 -0.200000 0.250000
v 0.200000 0.400000 0.250000
v 0.400000 0.200000 0.250000
v -0.400000 0.200000 0.250000
v 0.200000 0.400000 0.300000
v 0.200000 -0.400000 0.300000
v -0.200000 0.400000 0.300000
v -0.400000 0.205790 0.300000
v -0.400000 -0.194210 0.300000
v 0.400000 0.200000 0.300000
v -0.200000 -0.400000 0.300000
v 0.400000 -0.200000 0.300000
v 0.500000 0.500000 0.500000
v -0.500000 0.500000 0.500000
v -0.500000 -0.500000 0.500000
v 0.500000 -0.500000 0.500000
v 0.400000 0.200000 0.450000
v 0.200000 0.400000 0.450000
v 0.200000 -0.400000 0.450000
v 0.400000 -0.200000 0.450000
v -0.400000 -0.194210 0.450000
v -0.200000 -0.400000 0.450000
v -0.200000 0.400000 0.450000
v -0.400000 0.200000 0.450000
v -0.200000 0.400000 0.500000
v -0.400000 0.200000 0.500000
v 0.200000 0.400000 0.500000
v 0.400000 -0.200000 0.500000
v 0.200000 -0.400000 0.500000
v -0.400000 -0.200000 0.500000
v 0.400000 0.200000 0.500000
v -0.200000 -0.400000 0.500000
v 0.200000 0.400000 0.300000
v 0.200000 -0.400000 0.300000
v -0.200000 0.400000 0.300000
v -0.400000 0.205790 0.300000
v -0.400000 -0.194210 0.300000
v 0.400000 0.200000 0.300000
v -0.200000 -0.400000 0.300000
v 0.400000 -0.200000 0.300000
v 0.400000 0.200000 0.450000
v 0.200000 0.400000 0.450000
v 0.200000 -0.400000 0.450000
v 0.400000 -0.200000 0.450000
v -0.400000 -0.194210 0.450000
v -0.200000 -0.400000 0.450000
v -0.200000 0.400000 0.450000
v -0.400000 0.200000 0.450000
vt 0.000000 1.000000
vt 0.300000 0.900000
vt 0.700000 0.900000
vt 1.000000 1.000000
vt 0.700000 0.100000
vt 1.000000 0.000000
vt 0.900000 0.300000
vt 0.000000 0.000000
vt 0.300000 0.100000
vt 0.100000 0.300000
vt 0.100000 0.700000
vt 0.900000 0.700000
vt 0.524644 0.697295
vt 0.468735 0.999954
vt 0.531229 0.999954
vt 0.698000 0.000030
vt 0.302000 0.049530
vt 0.302000 0.000030
vt 0.524644 0.697295
vt 0.468735 0.999954
vt 0.475320 0.697295
vt 0.475320 0.302699
vt 0.524644 0.302699
vt 0.305902 0.999071
vt 0.705902 0.949071
vt 0.705902 0.999071
vt 0.524644 0.302699
vt 0.475320 0.697295
vt 0.468735 0.000040
vt 0.531230 0.000040
vt 0.468735 0.000040
vt 0.475320 0.302699
vt 0.698000 0.049530
vt 0.531229 0.999954
vt 0.305902 0.949071
vt 0.531230 0.000040
vt 1.000000 0.750000
vt 0.000000 1.000000
vt 0.000000 0.750000
vt 1.000000 0.000000
vt 0.000000 0.250000
vt 0.000000 -0.000000
vt 1.000000 0.406250
vt 0.750000 0.593750
vt 1.000000 0.593750
vt 1.000000 0.406250
vt 0.750000 0.593750
vt 1.000000 0.593750
vt 0.250000 0.406250
vt 0.750000 0.406250
vt 0.750000 0.406250
vt 0.250000 0.593750
vt 0.250000 0.406250
vt 0.250000 0.406250
vt 0.750000 0.406250
vt 0.000000 0.406250
vt 0.250000 0.593750
vt 0.750000 0.406250
vt 0.250000 0.593750
vt 0.250000 0.406250
vt 1.000000 0.406250
vt 0.750000 0.593750
vt 0.750000 1.000000
vt 1.000000 1.000000
vt 0.250000 0.000000
vt 0.250000 1.000000
vt 1.000000 1.000000
vt 1.000000 0.250000
vt 0.250000 0.593750
vt 0.000000 0.593750
vt 0.750000 0.593750
vt 1.000000 0.593750
vt 0.750000 0.000000
vt 0.250000 0.656250
vt 1.000000 0.656250
vt 0.750000 0.656250
vt 1.000000 0.656250
vt 1.000000 0.656250
vt 0.750000 0.656250
vt 0.250000 0.656250
vt 0.750000 0.656250
vt 0.250000 0.656250
vt 0.000000 -0.000000
vt 1.000000 0.000001
vt 0.700000 0.100000
vt 0.300000 0.100000
vt 0.100000 0.300000
vt 0.900000 0.700000
vt 0.999999 1.000000
vt 0.699999 0.900000
vt 0.300000 0.899999
vt -0.000000 0.999999
vt 0.100000 0.699999
vt 0.750000 0.656250
vt 0.250000 0.656250
vt 0.000000 0.656250
vt 0.900000 0.300000
vt 0.250000 0.000000
vt 1.000000 0.257238
vt 0.000000 0.250000
vt 0.000000 0.750000
vt 1.000000 0.757238
vt 0.250000 1.000000
vt 0.750000 1.000000
vt 0.750000 0.000000
vt 1.000000 0.257238
vt 0.750000 0.000000
vt 0.250000 0.000000
vt 0.000000 0.250000
vt 1.000000 0.750000
vt 0.000000 0.750000
vt 0.750000 1.000000
vt 0.250000 1.000000
vn 0.0000 0.0000 -1.0000
vn -0.8944 -0.4472 0.0000
vn -0.3417 -0.9398 -0.0000
vn -0.1961 -0.9806 -0.0000
vn 0.1961 0.9806 0.0000
vn -0.3162 0.9487 -0.0000
vn 0.9481 -0.3175 0.0184
vn 0.4012 -0.9160 -0.0000
vn 0.9757 -0.2193 0.0000
vn 0.9481 -0.3176 0.0184
vn 0.9262 0.3769 -0.0063
vn 0.8954 0.4445 -0.0258
vn 0.3162 -0.9487 0.0000
vn -0.9487 0.3162 0.0000
vn -0.9615 -0.2747 -0.0000
vn 0.8954 0.4445 -0.0257
vn 0.2600 0.9656 -0.0059
vn 0.9262 0.3769 -0.0062
vn 0.2600 0.9656 -0.0058
vn 0.0000 1.0000 0.0000
vn 0.0000 -1.0000 0.0000
vn -0.9398 -0.3417 0.0000
vn -0.2747 -0.9615 -0.0000
vn -0.3417 0.9398 0.0000
vn -0.9615 0.2747 -0.0000
vn 0.9671 0.2545 0.0059
vn 0.3901 0.9208 0.0000
vn 0.2600 0.9656 0.0000
vn 0.2169 -0.9762 -0.0000
vn 0.9121 -0.4100 -0.0060
vn -1.0000 0.0000 0.0000
vn 1.0000 0.0000 0.0000
vn 0.9121 -0.4100 -0.0059
vn 0.9671 0.2545 0.0000
vn 0.9487 -0.3162 0.0000
vn -0.4472 -0.8944 -0.0000
vn -0.8944 0.4472 -0.0000
vn -0.1961 0.9806 -0.0000
vn 0.9801 0.1972 0.0228
vn -0.9806 -0.1961 -0.0000
vn 0.4522 0.8915 0.0258
vn 0.0000 -0.0000 1.0000
vn 0.4527 0.8914 0.0234
usemtl front
s off
f 1/1/1 10/2/1 2/3/1 3/4/1
f 4/5/1 5/6/1 6/7/1
f 7/8/1 8/9/1 9/10/1
f 10/2/1 1/1/1 11/11/1
f 12/12/1 3/4/1 2/3/1
f 1/1/1 9/10/1 11/11/1
f 6/7/1 3/4/1 12/12/1
f 11/13/2 13/14/3 10/15/4
f 4/16/5 14/17/6 8/18/6
f 12/19/7 15/20/8 16/21/9
f 12/19/10 17/22/11 6/23/12
f 10/24/4 15/25/8 2/26/13
f 9/27/14 18/28/15 11/13/2
f 6/23/16 19/29/17 4/30/5
f 9/27/14 14/31/6 20/32/14
f 1/1/1 7/8/1 9/10/1
f 6/7/1 5/6/1 3/4/1
f 11/13/2 18/28/15 13/14/3
f 4/16/5 19/33/17 14/17/6
f 12/19/10 2/34/13 15/20/8
f 12/19/10 16/21/9 17/22/18
f 10/24/4 13/35/3 15/25/8
f 9/27/14 20/32/14 18/28/15
f 6/23/16 17/22/18 19/29/19
f 9/27/14 8/36/6 14/31/6
f 7/8/1 5/6/1 4/5/1 8/9/1
usemtl sides
f 21/37/20 3/38/20 22/39/20
f 23/40/21 7/41/21 24/42/21
f 13/43/3 25/44/22 26/45/23
f 20/46/14 27/47/24 28/48/25
f 19/49/17 27/47/24 14/50/6
f 16/51/9 29/52/26 17/53/18
f 20/54/14 25/44/22 18/55/15
f 17/56/18 30/57/27 19/49/28
f 13/58/3 31/59/29 15/60/8
f 15/61/8 32/62/30 16/51/9
f 3/63/31 23/40/31 22/64/31
f 24/65/32 1/1/32 21/66/32
f 21/37/20 1/67/20 3/38/20
f 23/40/21 5/68/21 7/41/21
f 13/43/3 18/55/15 25/44/22
f 20/46/14 14/50/6 27/47/24
f 19/49/17 30/57/27 27/47/24
f 16/51/9 32/62/33 29/52/26
f 20/54/14 28/69/25 25/44/22
f 17/56/18 29/70/34 30/57/27
f 13/58/3 26/71/23 31/59/29
f 15/61/8 31/72/29 32/62/33
f 3/63/31 5/73/31 23/40/31
f 24/65/32 7/8/32 1/1/32
usemtl back
f 26/71/23 33/74/13 31/59/29
f 32/62/33 33/75/13 34/76/35
f 25/44/22 35/77/36 26/45/23
f 27/47/24 36/78/37 28/48/25
f 30/57/27 37/79/38 27/47/24
f 32/62/33 38/80/39 29/52/26
f 28/69/25 39/81/40 25/44/22
f 29/70/26 40/82/41 30/57/27
f 23/83/42 24/84/42 37/85/42 40/86/42
f 40/86/42 38/87/42 23/83/42
f 39/88/42 21/89/42 35/90/42
f 33/91/42 22/92/42 34/93/42
f 26/71/23 35/94/36 33/74/13
f 32/62/30 31/72/29 33/75/13
f 25/44/22 39/81/40 35/77/36
f 32/62/30 34/76/35 38/80/39
f 28/69/25 36/95/37 39/81/40
f 29/70/26 38/96/39 40/82/43
f 27/47/24 37/79/38 36/78/37
f 30/57/27 40/82/41 37/79/38
f 21/89/42 22/92/42 33/91/42 35/90/42
f 34/93/42 22/92/42 23/83/42 38/87/42
f 37/85/42 24/84/42 36/97/42
f 36/97/42 24/84/42 21/89/42 39/88/42
usemtl 5
f 42/98/1 45/99/1 48/100/1
f 46/101/1 48/100/1 44/102/1
f 41/103/1 46/101/1 43/104/1
f 45/99/1 42/98/1 47/105/1
f 44/102/1 48/100/1 45/99/1
f 43/104/1 46/101/1 44/102/1
f 53/106/42 54/107/42 51/108/42
f 52/109/42 53/106/42 51/108/42
f 56/110/42 53/106/42 52/109/42
f 56/110/42 52/109/42 49/111/42
f 56/110/42 49/111/42 55/112/42
f 50/113/42 55/112/42 49/111/42
