# Blender v3.1.2 OBJ File: 'tile.blend'
# www.blender.org
mtllib tile_floor_back.mtl
o tile_floor_back
v -0.500000 -0.300000 0.500000
v -0.500000 0.000000 0.500000
v -0.500000 -0.300000 -0.500000
v -0.500000 0.000000 -0.500000
v 0.500000 -0.300000 0.500000
v 0.500000 0.000000 0.500000
v 0.500000 -0.300000 -0.500000
v 0.500000 0.000000 -0.500000
vt 1.000000 1.000000
vt 0.000000 1.000000
vt 0.000000 0.000000
vt 1.000000 0.000000
vt -0.000001 -0.000006
vt 0.999999 -0.000006
vt 0.999999 0.299994
vt -0.000001 0.299994
vt 0.000000 1.000000
vt 1.000000 1.000000
vn 0.0000 1.0000 0.0000
vn 0.0000 0.0000 1.0000
vn 0.0000 -1.0000 0.0000
usemtl floor
s off
f 8/1/1 4/2/1 2/3/1 6/4/1
f 1/5/2 5/6/2 6/7/2 2/8/2
usemtl insidewalls
f 3/9/3 7/10/3 5/6/3 1/5/3
