# Blender v2.93.4 OBJ File: 'EmergencyLights.blend'
# www.blender.org
mtllib ShortGatedEmergencyLight.mtl
o Cube.005_Cube.006
v -0.404672 -0.150031 -0.033542
v -0.260471 -0.229875 -0.033542
v -0.260471 0.222471 -0.033542
v -0.404672 0.142626 -0.033542
v -0.260471 -0.229875 -0.180586
v -0.404672 -0.150031 -0.180586
v -0.404672 0.142626 -0.180586
v -0.260471 0.222471 -0.180586
v 0.268077 -0.229875 -0.033542
v 0.412278 -0.150031 -0.033542
v 0.412278 0.142626 -0.033542
v 0.268077 0.222471 -0.033542
v 0.412278 -0.150031 -0.180586
v 0.268077 -0.229875 -0.180586
v 0.268077 0.222471 -0.180586
v 0.412278 0.142626 -0.180586
v 0.307876 0.154088 -0.068549
v 0.307876 -0.148276 -0.068549
v -0.019787 0.172901 -0.043393
v 0.012929 0.172901 -0.043393
v -0.307440 0.154088 -0.068549
v -0.307440 -0.148276 -0.068549
v -0.003429 0.158986 0.070913
v -0.003429 0.205616 -0.043393
v -0.231723 0.205616 -0.043393
v -0.231723 0.158986 0.070913
v -0.215365 0.172901 -0.043393
v -0.248080 0.172901 -0.043393
v -0.215365 0.142198 0.052758
v -0.248080 0.142198 0.052758
v -0.231723 0.085968 0.110287
v -0.215365 0.083948 0.079372
v -0.248080 0.083948 0.079372
v -0.231723 -0.092474 0.106265
v -0.215365 -0.087076 0.075234
v -0.248080 -0.087076 0.075234
v -0.231723 -0.159957 0.080030
v -0.212267 -0.144053 0.054880
v -0.251178 -0.144053 0.054880
v -0.231723 -0.195131 -0.003226
v -0.212267 -0.164760 -0.003517
v -0.251178 -0.164760 -0.003517
v -0.248080 0.166325 0.001627
v -0.231723 0.191947 0.007931
v -0.215365 0.166325 0.001627
v -0.231723 -0.195526 -0.044444
v -0.212267 -0.165154 -0.044735
v -0.251178 -0.165154 -0.044735
v 0.262803 0.109015 0.035134
v 0.307876 0.154088 -0.009939
v 0.262803 -0.103204 0.035134
v 0.307876 -0.148276 -0.009939
v -0.262367 0.109015 0.035134
v -0.307440 0.154088 -0.009939
v -0.262367 -0.103204 0.035134
v -0.307440 -0.148276 -0.009939
v 0.012929 0.142198 0.052758
v -0.019787 0.142198 0.052758
v -0.003429 0.085968 0.110287
v 0.012929 0.083948 0.079372
v -0.019787 0.083948 0.079372
v -0.003429 -0.092474 0.106265
v 0.012929 -0.087076 0.075234
v -0.019787 -0.087076 0.075234
v -0.003429 -0.159957 0.080030
v 0.016027 -0.144053 0.054880
v -0.022885 -0.144053 0.054880
v -0.003429 -0.195131 -0.003226
v 0.016027 -0.164760 -0.003517
v -0.022885 -0.164760 -0.003517
v -0.019787 0.166325 0.001627
v -0.003429 0.191947 0.007931
v 0.012929 0.166325 0.001627
v -0.003429 -0.195526 -0.044444
v 0.016027 -0.165154 -0.044735
v -0.022885 -0.165154 -0.044735
v 0.216149 0.172901 -0.043393
v 0.248864 0.172901 -0.043393
v 0.232507 0.158986 0.070913
v 0.232507 0.205616 -0.043393
v 0.248864 0.142198 0.052758
v 0.216149 0.142198 0.052758
v 0.232507 0.085968 0.110287
v 0.248864 0.083948 0.079372
v 0.216149 0.083948 0.079372
v 0.232507 -0.092474 0.106265
v 0.248864 -0.087076 0.075234
v 0.216149 -0.087076 0.075234
v 0.232507 -0.159957 0.080030
v 0.251963 -0.144053 0.054880
v 0.213051 -0.144053 0.054880
v 0.232507 -0.195131 -0.003226
v 0.251963 -0.164760 -0.003517
v 0.213051 -0.164760 -0.003517
v 0.216149 0.166325 0.001627
v 0.232507 0.191947 0.007931
v 0.248864 0.166325 0.001627
v 0.232507 -0.195526 -0.044444
v 0.251963 -0.165154 -0.044735
v 0.213051 -0.165154 -0.044735
vt 0.375000 0.794128
vt 0.419128 0.750000
vt 0.580872 0.750000
vt 0.625000 0.794128
vt 0.625000 0.955872
vt 0.580872 1.000000
vt 0.419128 1.000000
vt 0.375000 0.955872
vt 0.419128 0.500000
vt 0.580872 0.500000
vt 0.669128 0.500000
vt 0.830872 0.500000
vt 0.830872 0.750000
vt 0.669128 0.750000
vt 0.419128 0.000000
vt 0.580872 0.000000
vt 0.580872 0.250000
vt 0.419128 0.250000
vt 0.375000 0.294128
vt 0.625000 0.294128
vt 0.625000 0.455872
vt 0.375000 0.455872
vt 0.169128 0.500000
vt 0.169128 0.750000
vt 0.125000 0.750000
vt 0.125000 0.500000
vt 0.625000 0.000000
vt 0.625000 0.250000
vt 0.330872 0.750000
vt 0.330872 0.500000
vt 0.000000 0.000000
vt 0.000000 1.000000
vt 1.000000 0.000000
vt 0.000000 0.000000
vt 0.000000 1.000000
vt 1.000000 0.000000
vt 0.000000 1.000000
vt 0.000000 0.000000
vt 0.000000 0.000000
vt 0.000000 1.000000
vt 0.000000 1.000000
vt 0.000000 0.000000
vt 1.000000 0.000000
vt 1.000000 0.000000
vt 0.000000 0.000000
vt 0.000000 1.000000
vt 1.000000 0.000000
vt 0.000000 0.000000
vt 0.000000 1.000000
vt 1.000000 0.000000
vt 0.000000 0.000000
vt 0.000000 1.000000
vt 1.000000 0.000000
vt 0.000000 0.000000
vt 0.000000 1.000000
vt 1.000000 0.000000
vt 1.000000 0.000000
vt 0.000000 1.000000
vt 0.000000 0.000000
vt 0.000000 0.000000
vt 0.000000 1.000000
vt 0.000000 1.000000
vt 0.000000 0.000000
vt 1.000000 0.000000
vt 1.000000 0.000000
vt 0.000000 0.000000
vt 0.000000 1.000000
vt 1.000000 0.000000
vt 0.000000 0.000000
vt 0.000000 1.000000
vt 1.000000 0.000000
vt 0.000000 0.000000
vt 0.000000 1.000000
vt 1.000000 0.000000
vt 0.000000 0.000000
vt 0.000000 1.000000
vt 1.000000 0.000000
vt 1.000000 0.000000
vt 0.000000 0.000000
vt 0.000000 1.000000
vt 1.000000 0.000000
vt 0.000000 1.000000
vt 0.000000 0.000000
vt 0.000000 0.000000
vt 0.000000 1.000000
vt 0.000000 1.000000
vt 0.000000 0.000000
vt 1.000000 0.000000
vt 1.000000 0.000000
vt 0.000000 0.000000
vt 0.000000 1.000000
vt 1.000000 0.000000
vt 0.000000 0.000000
vt 0.000000 1.000000
vt 1.000000 0.000000
vt 0.000000 0.000000
vt 0.000000 1.000000
vt 1.000000 0.000000
vt 0.000000 0.000000
vt 0.000000 1.000000
vt 1.000000 0.000000
vt 1.000000 0.000000
vt 0.375000 0.608680
vt 0.625000 0.608680
vt 0.625000 0.750000
vt 0.375000 0.750000
vt 0.375000 0.250000
vt 0.625000 0.250000
vt 0.625000 0.500000
vt 0.375000 0.500000
vt 0.125000 0.500000
vt 0.375000 0.500000
vt 0.375000 0.641320
vt 0.125000 0.641320
vt 0.375000 0.000000
vt 0.625000 0.000000
vt 0.625000 0.141320
vt 0.375000 0.141320
vt 0.412267 0.768313
vt 0.587733 0.768313
vt 0.587733 0.981687
vt 0.412267 0.981687
vt 0.412267 0.500000
vt 0.587733 0.500000
vt 0.625000 0.750000
vt 0.625000 1.000000
vt 0.606687 0.250000
vt 0.393313 0.250000
vt 0.375000 0.750000
vt 0.875000 0.500000
vt 0.875000 0.641320
vt 0.625000 0.641320
vn 0.0000 0.0000 1.0000
vn 1.0000 0.0000 0.0000
vn 0.0000 1.0000 0.0000
vn -1.0000 0.0000 0.0000
vn 0.0000 0.0000 -1.0000
vn -0.4844 -0.8748 0.0000
vn -0.4844 0.8748 0.0000
vn 0.4844 -0.8748 0.0000
vn 0.4844 0.8748 0.0000
vn 0.0000 -1.0000 0.0000
vn -0.8477 0.2382 0.4739
vn -0.8310 0.4975 0.2489
vn 0.8310 0.4975 0.2489
vn 0.0000 -0.9044 -0.4267
vn -0.8844 -0.0109 0.4665
vn 0.0000 -0.4156 -0.9096
vn 0.8478 0.2382 0.4739
vn -0.8588 -0.1607 0.4865
vn 0.0000 0.0242 -0.9997
vn 0.8845 -0.0109 0.4665
vn -0.8028 -0.5547 0.2188
vn 0.0000 0.3364 -0.9417
vn 0.8588 -0.1607 0.4865
vn -0.8421 -0.5394 0.0052
vn 0.0000 0.9425 -0.3342
vn 0.8028 -0.5547 0.2188
vn 0.0000 -0.9895 -0.1445
vn 0.8724 0.4784 0.1005
vn -0.8724 0.4784 0.1005
vn 0.0000 -0.0096 -1.0000
vn 0.0000 1.0000 -0.0096
vn 0.8421 -0.5394 0.0052
vn -0.7071 0.0000 0.7071
vn 0.0000 0.7071 0.7071
vn 0.0000 -0.7071 0.7071
vn 0.7071 0.0000 0.7071
usemtl Material.001
s off
f 9/1/1 10/2/1 11/3/1 12/4/1 3/5/1 4/6/1 1/7/1 2/8/1
f 13/9/2 16/10/2 11/3/2 10/2/2
f 15/11/3 8/12/3 3/13/3 12/14/3
f 1/15/4 4/16/4 7/17/4 6/18/4
f 5/19/5 6/18/5 7/17/5 8/20/5 15/21/5 16/10/5 13/9/5 14/22/5
f 5/23/6 2/24/6 1/25/6 6/26/6
f 3/27/7 8/28/7 7/17/7 4/16/7
f 9/29/8 14/30/8 13/9/8 10/2/8
f 15/11/9 12/14/9 11/3/9 16/10/9
f 5/23/10 14/30/10 9/29/10 2/24/10
f 19/31/5 24/32/5 20/33/5
f 28/34/5 25/35/5 27/36/5
f 26/37/11 30/38/11 33/39/11 31/40/11
f 44/41/12 43/42/12 30/38/12 26/37/12
f 45/43/13 44/41/13 26/37/13 29/44/13
f 43/42/14 45/43/14 29/44/14 30/38/14
f 31/40/15 33/39/15 36/45/15 34/46/15
f 30/38/16 29/44/16 32/47/16 33/39/16
f 29/44/17 26/37/17 31/40/17 32/47/17
f 34/46/18 36/45/18 39/48/18 37/49/18
f 33/39/19 32/47/19 35/50/19 36/45/19
f 32/47/20 31/40/20 34/46/20 35/50/20
f 37/49/21 39/48/21 42/51/21 40/52/21
f 36/45/22 35/50/22 38/53/22 39/48/22
f 35/50/23 34/46/23 37/49/23 38/53/23
f 40/52/24 42/51/24 48/54/24 46/55/24
f 39/48/25 38/53/25 41/56/25 42/51/25
f 38/53/26 37/49/26 40/52/26 41/56/26
f 28/34/27 27/36/27 45/43/27 43/42/27
f 27/36/28 25/35/28 44/41/28 45/43/28
f 25/35/29 28/34/29 43/42/29 44/41/29
f 48/54/30 47/57/30 46/55/30
f 42/51/31 41/56/31 47/57/31 48/54/31
f 41/56/32 40/52/32 46/55/32 47/57/32
f 23/58/11 58/59/11 61/60/11 59/61/11
f 72/62/12 71/63/12 58/59/12 23/58/12
f 73/64/13 72/62/13 23/58/13 57/65/13
f 71/63/14 73/64/14 57/65/14 58/59/14
f 59/61/15 61/60/15 64/66/15 62/67/15
f 58/59/16 57/65/16 60/68/16 61/60/16
f 57/65/17 23/58/17 59/61/17 60/68/17
f 62/67/18 64/66/18 67/69/18 65/70/18
f 61/60/19 60/68/19 63/71/19 64/66/19
f 60/68/20 59/61/20 62/67/20 63/71/20
f 65/70/21 67/69/21 70/72/21 68/73/21
f 64/66/22 63/71/22 66/74/22 67/69/22
f 63/71/23 62/67/23 65/70/23 66/74/23
f 68/73/24 70/72/24 76/75/24 74/76/24
f 67/69/25 66/74/25 69/77/25 70/72/25
f 66/74/26 65/70/26 68/73/26 69/77/26
f 19/31/27 20/33/27 73/64/27 71/63/27
f 20/33/28 24/32/28 72/62/28 73/64/28
f 24/32/29 19/31/29 71/63/29 72/62/29
f 76/75/30 75/78/30 74/76/30
f 70/72/31 69/77/31 75/78/31 76/75/31
f 69/77/32 68/73/32 74/76/32 75/78/32
f 77/79/5 80/80/5 78/81/5
f 79/82/11 82/83/11 85/84/11 83/85/11
f 96/86/12 95/87/12 82/83/12 79/82/12
f 97/88/13 96/86/13 79/82/13 81/89/13
f 95/87/14 97/88/14 81/89/14 82/83/14
f 83/85/15 85/84/15 88/90/15 86/91/15
f 82/83/16 81/89/16 84/92/16 85/84/16
f 81/89/17 79/82/17 83/85/17 84/92/17
f 86/91/18 88/90/18 91/93/18 89/94/18
f 85/84/19 84/92/19 87/95/19 88/90/19
f 84/92/20 83/85/20 86/91/20 87/95/20
f 89/94/21 91/93/21 94/96/21 92/97/21
f 88/90/22 87/95/22 90/98/22 91/93/22
f 87/95/23 86/91/23 89/94/23 90/98/23
f 92/97/24 94/96/24 100/99/24 98/100/24
f 91/93/25 90/98/25 93/101/25 94/96/25
f 90/98/26 89/94/26 92/97/26 93/101/26
f 77/79/27 78/81/27 97/88/27 95/87/27
f 78/81/28 80/80/28 96/86/28 97/88/28
f 80/80/29 77/79/29 95/87/29 96/86/29
f 100/99/30 99/102/30 98/100/30
f 94/96/31 93/101/31 99/102/31 100/99/31
f 93/101/32 92/97/32 98/100/32 99/102/32
usemtl Material.002
f 56/103/4 54/104/4 21/105/4 22/106/4
f 22/107/5 21/108/5 17/109/5 18/110/5
f 18/111/2 17/112/2 50/113/2 52/114/2
f 22/115/10 18/116/10 52/117/10 56/118/10
f 51/119/1 49/120/1 53/121/1 55/122/1
f 55/123/33 53/124/33 54/104/33 56/103/33
f 50/125/34 54/126/34 53/121/34 49/120/34
f 56/118/35 52/117/35 51/127/35 55/128/35
f 49/120/36 51/119/36 52/129/36 50/125/36
f 17/109/3 21/130/3 54/131/3 50/132/3
